<?xml version="1.0" encoding="UTF-8" standalone="no"?>
<svg
   width="200"
   height="200"
   viewBox="0 0 200 200"
   fill="none"
   version="1.1"
   id="svg9"
   sodipodi:docname="fdf63d6a-9bdd-46cd-88bf-b0e67c945f18.svg"
   inkscape:version="1.2.2 (b0a8486541, 2022-12-01)"
   xmlns:inkscape="http://www.inkscape.org/namespaces/inkscape"
   xmlns:sodipodi="http://sodipodi.sourceforge.net/DTD/sodipodi-0.dtd"
   xmlns="http://www.w3.org/2000/svg"
   xmlns:svg="http://www.w3.org/2000/svg">
  <defs
     id="defs9">
    <filter
       inkscape:label="In and Out"
       inkscape:menu="Shadows and Glows"
       inkscape:menu-tooltip="Inner colorized shadow, outer black shadow"
       style="color-interpolation-filters:sRGB"
       id="filter13576"
       x="-1.0973413"
       y="-0.57427763"
       width="3.7635905"
       height="2.4469364">
      <feGaussianBlur
         result="result0"
         in="SourceAlpha"
         stdDeviation="4"
         id="feGaussianBlur13570" />
      <feOffset
         dx="5"
         dy="5"
         result="result4"
         id="feOffset13572" />
      <feComposite
         in="SourceGraphic"
         in2="result4"
         operator="xor"
         result="result3"
         id="feComposite13574" />
    </filter>
  </defs>
  <sodipodi:namedview
     id="namedview9"
     pagecolor="#ffffff"
     bordercolor="#000000"
     borderopacity="0.25"
     inkscape:showpageshadow="2"
     inkscape:pageopacity="0.0"
     inkscape:pagecheckerboard="0"
     inkscape:deskcolor="#d1d1d1"
     inkscape:zoom="1.721172"
     inkscape:cx="31.083471"
     inkscape:cy="223.39429"
     inkscape:window-width="1920"
     inkscape:window-height="1172"
     inkscape:window-x="1366"
     inkscape:window-y="0"
     inkscape:window-maximized="1"
     inkscape:current-layer="svg9"
     showgrid="false" />
  <g
     id="g624"
     transform="translate(0,-1.2917391)">
    <g
       id="g338"
       transform="translate(-16.094092,6.5809995)">
      <path
         d="m 69.705901,162.35875 -5.454166,-9.00046 c 3.06206,-1.28122 4.561317,-3.97174 4.561317,-7.01461 0,-2.17802 -0.701888,-4.00376 -2.137279,-5.44509 -1.435391,-1.4734 -3.476552,-2.21009 -6.187988,-2.21009 h -9.377461 v 23.67025 h 5.262887 v -8.26376 h 2.583704 l 4.624864,8.26376 z m -9.249729,-18.80167 c 1.881815,0 2.934328,1.24915 2.934328,2.88269 0,1.66556 -1.084446,2.97881 -3.285273,2.97881 h -3.732016 v -5.8615 z"
         fill="#333638"
         id="path1"
         style="stroke-width:0.319331" />
      <path
         d="m 88.032281,153.16612 c 0,-2.72258 -0.829301,-4.86858 -2.487904,-6.43806 -1.658922,-1.56948 -3.763949,-2.37023 -6.347653,-2.37023 -2.743049,0 -4.975809,0.86481 -6.666345,2.62646 -1.690536,1.72962 -2.55177,3.90768 -2.55177,6.56617 0,2.59444 0.829301,4.77249 2.455971,6.53414 1.658603,1.76166 4.019095,2.65853 7.113088,2.65853 2.966262,0 5.518033,-0.80076 7.655312,-2.43429 l -1.977614,-3.42725 c -1.658603,1.12108 -3.476871,1.69759 -5.454485,1.69759 -2.551771,0 -4.146508,-1.08901 -4.752597,-3.2991 h 12.854332 c 0.0958,-0.80075 0.159665,-1.50542 0.159665,-2.11396 z m -8.835557,-4.74047 c 2.073414,0 3.540737,1.24916 4.019095,3.26708 h -8.229468 c 0.542223,-2.04995 2.169212,-3.26708 4.210373,-3.26708 z"
         fill="#333638"
         id="path2"
         style="stroke-width:0.319331" />
      <path
         d="m 103.7839,146.664 c -1.49926,-1.53745 -3.28527,-2.30617 -5.390619,-2.30617 -2.455972,0 -4.529385,0.86481 -6.156055,2.59443 -1.62667,1.72962 -2.455971,3.90768 -2.455971,6.53414 0,2.6585 0.797368,4.86858 2.424038,6.66226 1.62667,1.76169 3.700083,2.65852 6.187988,2.65852 2.105349,0 3.891359,-0.73669 5.390619,-2.24211 v 1.79368 h 4.72066 v -17.55252 h -4.72066 z m -8.994903,6.88646 c 0,-1.28118 0.41481,-2.37023 1.244112,-3.26707 0.861234,-0.89684 1.913748,-1.34524 3.221406,-1.34524 1.307655,0 2.360495,0.4484 3.221725,1.34524 0.86092,0.89684 1.30766,1.98589 1.30766,3.26707 0,1.28122 -0.44674,2.37023 -1.30766,3.2991 -0.86123,0.92887 -1.91407,1.37731 -3.221725,1.37731 -1.307658,0 -2.360172,-0.44844 -3.221406,-1.34528 -0.829302,-0.92887 -1.244112,-2.01788 -1.244112,-3.33113 z"
         fill="#333638"
         id="path3"
         style="stroke-width:0.319331" />
      <path
         d="m 117.04219,137.98383 h -5.00775 v 24.37492 h 5.00775 z"
         fill="#333638"
         id="path4"
         style="stroke-width:0.319331" />
      <path
         d="m 130.83248,144.35783 c -2.10535,0 -3.89137,0.80075 -5.32676,2.40226 v -1.95386 h -4.94387 v 24.79133 h 5.00774 v -9.03249 c 1.43539,1.50542 3.18947,2.24211 5.26289,2.24211 2.45597,0 4.49745,-0.89683 6.12412,-2.69055 1.62667,-1.79368 2.45597,-3.97173 2.45597,-6.56617 0,-2.5624 -0.79737,-4.74046 -2.42404,-6.50211 -1.62667,-1.79368 -3.66815,-2.69052 -6.15605,-2.69052 z m 3.50848,9.22466 c 0,2.59443 -1.84988,4.61235 -4.43358,4.61235 -2.58371,0 -4.40166,-2.01792 -4.40166,-4.61235 0,-1.28118 0.41449,-2.37023 1.24411,-3.23504 0.82931,-0.89684 1.88182,-1.34524 3.15755,-1.34524 1.30797,0 2.36049,0.4484 3.18979,1.34524 0.8293,0.86481 1.24379,1.95386 1.24379,3.23504 z"
         fill="#333638"
         id="path5"
         style="stroke-width:0.319331" />
      <path
         d="m 155.18846,146.664 c -1.49894,-1.53745 -3.28528,-2.30617 -5.39062,-2.30617 -2.45597,0 -4.52907,0.86481 -6.15606,2.59443 -1.62667,1.72962 -2.45597,3.90768 -2.45597,6.53414 0,2.6585 0.79737,4.86858 2.42436,6.66226 1.62667,1.76169 3.69976,2.65852 6.18767,2.65852 2.10534,0 3.89168,-0.73669 5.39062,-2.24211 v 1.79368 h 4.72066 v -17.55252 h -4.72066 z m -8.99491,6.88646 c 0,-1.28118 0.41481,-2.37023 1.24411,-3.26707 0.86124,-0.89684 1.91375,-1.34524 3.22141,-1.34524 1.30798,0 2.36049,0.4484 3.22173,1.34524 0.86123,0.89684 1.30766,1.98589 1.30766,3.26707 0,1.28122 -0.44643,2.37023 -1.30766,3.2991 -0.86124,0.92887 -1.91375,1.37731 -3.22173,1.37731 -1.30766,0 -2.36017,-0.44844 -3.22141,-1.34528 -0.8293,-0.92887 -1.24411,-2.01788 -1.24411,-3.33113 z"
         fill="#333638"
         id="path6"
         style="stroke-width:0.319331" />
      <path
         d="m 176.07012,146.50386 c -1.37152,-1.44136 -3.06206,-2.14603 -5.03967,-2.14603 -2.45598,0 -4.49746,0.89684 -6.15606,2.65849 -1.62667,1.76165 -2.45597,3.93971 -2.45597,6.56617 0,2.65852 0.8293,4.83655 2.45597,6.5982 1.6586,1.76168 3.70008,2.62649 6.15606,2.62649 2.10502,0 3.82749,-0.76872 5.19902,-2.3382 v 1.88977 h 4.84839 v -24.37492 h -5.00774 z m 0.25515,7.0466 c 0,1.31325 -0.41482,2.43429 -1.27573,3.33113 -0.8293,0.89684 -1.88213,1.34528 -3.18979,1.34528 -1.30766,0 -2.36049,-0.44844 -3.22173,-1.34528 -0.8293,-0.89684 -1.24379,-2.01788 -1.24379,-3.33113 0,-1.28118 0.41449,-2.37023 1.24379,-3.26707 0.86124,-0.89684 1.91407,-1.34524 3.22173,-1.34524 1.30766,0 2.36049,0.4484 3.18979,1.34524 0.86091,0.89684 1.27573,1.98589 1.27573,3.26707 z"
         fill="#333638"
         id="path7"
         style="stroke-width:0.319331" />
    </g>
    <g
       id="g342"
       transform="matrix(4.2856271,0,0,4.2856271,-38.052559,-560.26434)">
      <path
         fill-rule="evenodd"
         clip-rule="evenodd"
         d="m 26.684378,142.90564 4.570515,9.3812 -4.492885,9.18203 c -0.990181,2.02315 -3.457871,2.87257 -5.508092,1.89548 -2.050223,-0.97625 -2.911019,-3.4122 -1.92084,-5.43449 z"
         fill="#6895fa"
         id="path8"
         style="stroke-width:0.319331" />
      <path
         fill-rule="evenodd"
         clip-rule="evenodd"
         d="m 28.498719,142.73039 c -0.990659,-2.02395 -0.131564,-4.45842 1.916398,-5.43385 2.047995,-0.97542 4.514919,-0.1251 5.50561,1.89886 l 9.171334,18.73701 c 0.990691,2.02395 0.131596,4.45843 -1.916399,5.43386 -2.047962,0.97543 -4.514919,0.12508 -5.505578,-1.89887 z"
         fill="#333638"
         id="path9"
         style="stroke-width:0.319331" />
    </g>
  </g>
</svg>
